<svg width="18" height="18" viewBox="0 0 19 18" fill="none" xmlns="http://www.w3.org/2000/svg">
   <path
      d="M9.9414 0C8.59023 0 7.31194 0.307152 6.16035 0.84375C6.1528 0.841545 6.14505 0.838908 6.1375 0.836721L6.13047 0.859572C3.07132 2.29907 0.941406 5.40329 0.941406 9C0.941406 13.9599 4.9815 18 9.9414 18C14.9013 18 18.9414 13.9599 18.9414 9C18.9414 4.0401 14.9013 0 9.9414 0ZM9.9414 1.8C11.4862 1.8 12.835 2.38876 14.0054 3.21153C13.4371 3.77638 12.7751 4.276 12.0455 4.68281C11.0903 3.53091 9.92808 2.61369 8.7057 1.92656C9.1062 1.85208 9.5148 1.8 9.9414 1.8ZM6.37304 2.83008C7.76771 3.35485 9.16884 4.21586 10.2965 5.42813C8.42427 5.99664 6.27959 5.96226 4.12656 4.97285C4.72419 4.11088 5.48822 3.37861 6.37304 2.83008ZM15.3537 4.37695C16.1256 5.2817 16.6104 6.37827 16.8584 7.59024C15.8478 7.46586 14.817 7.52463 13.8068 7.72911C13.6016 7.17388 13.3519 6.64926 13.0668 6.15586C13.916 5.65448 14.6887 5.05286 15.3537 4.37695ZM3.21777 6.63398C6.07949 8.00397 8.98164 7.90506 11.4461 6.94688C11.6883 7.35264 11.9006 7.78248 12.0772 8.23887C9.25686 9.34182 6.8307 11.6636 5.86856 14.7849C4.02189 13.4837 2.74141 11.4393 2.74141 9C2.74141 8.15985 2.95527 7.38261 3.21777 6.63398ZM15.2149 9.34803C15.8318 9.33696 16.4337 9.44307 17.0307 9.54846C16.8505 11.8326 15.6426 13.8195 13.8596 15.0134C14.2738 13.818 14.5932 12.2449 14.4045 10.3271C14.3759 10.0366 14.3315 9.75447 14.2815 9.47637C14.3855 9.45531 14.4883 9.41958 14.5926 9.40257C14.802 9.36837 15.0092 9.35172 15.2149 9.34803ZM12.5429 10.0213C12.5678 10.1815 12.597 10.3397 12.6133 10.5047C12.9172 13.5926 11.8439 15.4416 11.4268 16.0401C10.9486 16.1416 10.4531 16.2 9.9414 16.2C9.0657 16.2 8.25039 15.9884 7.47519 15.7043C8.15949 13.0546 10.1913 11.0336 12.5429 10.0213Z"
      fill="white" />
</svg>
   